<svg id="icon-journal" xmlns="http://www.w3.org/2000/svg" viewBox="0 0 16 16">
  <path d="M2 1.75C2 1.312 2.313 1 2.75 1h8.5C12.781 1 14 2.219 14 3.75v10.5c0 .438-.313.75-.75.75H4.5C3.125 15 2 13.875 2 12.5V1.75Zm1.5 9.375c.313-.188.656-.281 1-.281h8V3.75c0-.688-.563-1.25-1.25-1.25H3.5v8.625ZM4.5 12.344a.156.156 0 0 0 0 .312h8v-.312h-8ZM5 4.25c0-.406.313-.75.75-.75h4.5c.406 0 .75.344.75.75 0 .438-.344.75-.75.75h-4.5A.74.74 0 0 1 5 4.25Zm0 3c0-.406.313-.75.75-.75h4.5c.406 0 .75.344.75.75 0 .438-.344.75-.75.75h-4.5A.74.74 0 0 1 5 7.25Z"/>
</svg>
